# xmcd CD database file
# Generated: Sun Mar 18 16:18:44 2001 by KSCD
# 
# Track frame offsets:
#       150
#       9218
#       24833
#       42210
#       56003
#       67290
#       88463
#       99735
#       119198
#       131453
#       148560
#       160350
#       181440
#       196230
#
# Disc length: 2805 seconds
#
# Revision: 2
# Processed by: cddbd v1.4b41PL1 Copyright (c) Steve Scherf et al.
# Submitted via: Kscd 1.3.0
#
DISCID=ca0af30e
DTITLE=Good Time Charlie - Oochie-Coochie!
DYEAR=1900
DGENRE=
TTITLE0=Oochie Coochie!
TTITLE1=A Thing You Got To Face
TTITLE2=Money Money Honey!
TTITLE3=Well Baby
TTITLE4=Mary
TTITLE5=Dizzy, Broke And Blue
TTITLE6=Teenage Chill
TTITLE7=Back In Business
TTITLE8=She's Drivin' Me Real Crazy
TTITLE9=She's Mine, All Mine
TTITLE10=Magic Rocker
TTITLE11=California Blues
TTITLE12=One For 'Young John Watson' (Oh! Baby!)
TTITLE13=I Got To Go
EXTD=
EXTT0=
EXTT1=
EXTT2=
EXTT3=
EXTT4=
EXTT5=
EXTT6=
EXTT7=
EXTT8=
EXTT9=
EXTT10=
EXTT11=
EXTT12=
EXTT13=
PLAYORDER=
